PathFileType  4	(X/Y/Z) C:\Users\antoi\Documents\MyRepositories\mobilecap\ResultsAnalysis
DataRate	CameraRate	NumFrames	NumMarkers	Units	OrigDataRate	OrigDataStartFrame	OrigNumFrames
100.0	100.0	4	51	mm	100.0	37	294
Frame#	Time	r_knee			r_shank_antsup			r_ankle			r_calc			r_5meta			r_toe			L_knee			L_shank_antsup			L_ankle			L_calc			L_5meta			L_toe			r_sh2			r_sh3			r_sh4			L_sh2			L_sh3			r_thigh1			r_thigh2			r_thigh3			r_thigh4			r_thigh5			L_thigh1			L_thigh2			L_thigh3			L_thigh4			r.ASIS			r.PSIS			L.ASIS			L.PSIS			C7			R_Shoulder			L_Shoulder			R_Sternum			L_Sternum			R_humerus			R_elbow_med			R_elbow_lat			R_forearm			R_wrist_radius			R_wrist_ulna			L_humerus			L_elbow_med			L_elbow_lat			L_forearm			L_wrist_radius			L_wrist_ulna			R_HJC			L_HJC			R_HJC_reg			L_HJC_reg			
		X1	Y1	Z1	X2	Y2	Z2	X3	Y3	Z3	X4	Y4	Z4	X5	Y5	Z5	X6	Y6	Z6	X7	Y7	Z7	X8	Y8	Z8	X9	Y9	Z9	X10	Y10	Z10	X11	Y11	Z11	X12	Y12	Z12	X13	Y13	Z13	X14	Y14	Z14	X15	Y15	Z15	X16	Y16	Z16	X17	Y17	Z17	X18	Y18	Z18	X19	Y19	Z19	X20	Y20	Z20	X21	Y21	Z21	X22	Y22	Z22	X23	Y23	Z23	X24	Y24	Z24	X25	Y25	Z25	X26	Y26	Z26	X27	Y27	Z27	X28	Y28	Z28	X29	Y29	Z29	X30	Y30	Z30	X31	Y31	Z31	X32	Y32	Z32	X33	Y33	Z33	X34	Y34	Z34	X35	Y35	Z35	X36	Y36	Z36	X37	Y37	Z37	X38	Y38	Z38	X39	Y39	Z39	X40	Y40	Z40	X41	Y41	Z41	X42	Y42	Z42	X43	Y43	Z43	X44	Y44	Z44	X45	Y45	Z45	X46	Y46	Z46	X47	Y47	Z47	X48	Y48	Z48	X49	Y49	Z49	X50	Y50	Z50	X51	Y51	Z51	

37	0.36000000	-1207.37744	782.85737	-420.42459	-1174.16833	669.33400	-436.48350	-1253.08126	397.84946	-450.10436	-1302.30405	358.57943	-498.13616	-1139.38688	348.03854	-419.28891	-1104.27768	366.78626	-463.18328	-1210.35405	781.85745	-752.00521	-1173.80630	680.44069	-709.98256	-1263.67132	396.58837	-728.03992	-1305.20229	366.66311	-691.55077	-1142.64755	346.63775	-742.98169	-1103.95773	366.99677	-690.03885	-1188.53314	558.71650	-446.62230	-1228.68646	671.62678	-382.57990	-1259.85135	565.52983	-403.05844	-1226.75263	703.66213	-778.07792	-1243.65594	582.80368	-785.46395	-1122.45588	1082.69274	-434.48671	-1118.34898	973.82807	-430.23778	-1161.10204	947.74540	-385.20778	-1225.28848	1078.44892	-388.30333	-1215.77478	962.62764	-383.10781	-1134.58998	1072.47910	-761.35131	-1123.23445	933.67511	-759.61659	-1240.53677	1070.05133	-796.74223	-1230.88329	929.65817	-786.03173	-1102.56892	1235.47720	-468.35231	-1275.81967	1309.65968	-538.92274	-1097.66258	1235.31326	-715.60583	-1276.56011	1311.18794	-656.59223	-1205.76529	1759.44487	-591.55276	-1159.40991	1718.35709	-438.05746	-1152.65039	1725.99187	-747.62108	-1094.00466	1693.50312	-569.44073	-1093.50644	1691.74591	-611.87454	-1150.75198	1591.99628	-368.66282	-1250.08723	1406.43714	-412.58308	-1218.74865	1410.73602	-342.66135	-1182.46376	1288.29902	-325.60426	-1168.65340	1184.75202	-325.00055	-1198.81658	1184.80199	-301.91350	-1143.11725	1574.93848	-812.26213	-1241.58163	1396.72405	-768.80093	-1213.74769	1406.28170	-838.10409	-1178.25337	1314.36016	-861.47839	-1167.56639	1180.31068	-858.39322	-1190.82896	1181.57797	-879.77707	-1203.76759	1180.83431	-496.99031	-1196.64277	1176.82071	-686.19149	-1184.19286	1177.69977	-503.28010	-1185.21989	1179.81939	-666.48256	
38	0.37000000	-1206.59542	782.86474	-420.70908	-1173.32664	669.00214	-436.73846	-1253.18748	397.60532	-450.28389	-1302.34204	358.55156	-498.14900	-1139.40812	348.06299	-419.32655	-1104.35583	366.87971	-463.15323	-1209.85991	781.72794	-751.80608	-1173.19833	680.20581	-709.60178	-1263.66366	396.59726	-728.04275	-1305.21522	366.68982	-691.64446	-1142.62588	346.67724	-743.08905	-1103.97810	366.98529	-690.03173	-1188.11254	558.50282	-446.64571	-1227.79517	671.67831	-382.44151	-1259.79161	566.49228	-402.98520	-1226.02836	703.74454	-777.67343	-1243.38820	582.73139	-785.28705	-1123.01373	1082.93591	-434.17829	-1118.60098	974.12520	-430.06138	-1161.35197	947.76076	-385.41204	-1224.87497	1078.35742	-389.67889	-1216.02137	962.47683	-383.20336	-1135.16382	1072.76920	-761.41825	-1123.30606	933.92522	-759.44061	-1241.10990	1070.28152	-796.87272	-1230.85678	929.40207	-785.43127	-1103.11181	1235.13858	-468.23025	-1275.96689	1309.98749	-538.84594	-1098.12896	1234.86113	-715.31682	-1276.74386	1311.55598	-656.48952	-1202.74905	1759.32566	-591.37950	-1156.60971	1718.17804	-438.03120	-1149.77731	1725.71011	-747.47393	-1091.35930	1692.74440	-569.41604	-1090.80076	1690.96405	-611.68226	-1149.32541	1591.86781	-368.32589	-1249.42755	1407.61837	-412.62988	-1219.42462	1411.57354	-342.10535	-1184.97915	1288.59067	-324.57005	-1172.73948	1185.26477	-323.16398	-1202.84313	1185.14831	-300.92793	-1141.89303	1574.76218	-812.49872	-1242.43471	1397.69110	-769.18018	-1214.65861	1407.09063	-838.60337	-1180.55419	1314.73301	-862.30266	-1172.34670	1180.41313	-860.08539	-1196.33952	1182.59864	-881.42240	-1204.52994	1180.90884	-496.81988	-1197.35643	1176.80575	-686.01720	-1184.87335	1177.65928	-503.11645	-1185.95048	1179.83370	-666.20876	
39	0.38000000	-1205.72109	782.74207	-421.10111	-1172.41013	668.71233	-437.04708	-1253.20398	397.54647	-450.38879	-1302.37075	358.51584	-498.17347	-1139.49020	348.05293	-419.43151	-1104.41004	366.96871	-463.13955	-1209.26427	781.62994	-751.61136	-1172.55668	679.88893	-709.25387	-1263.64896	396.60840	-728.04396	-1305.28130	366.64188	-691.55694	-1142.68677	346.62182	-742.98526	-1103.98242	367.01320	-690.08131	-1187.63294	558.28021	-446.72004	-1227.05147	671.25260	-383.36636	-1259.14839	566.56847	-403.23755	-1225.42487	703.62400	-777.18892	-1243.06012	582.55080	-784.98100	-1123.53487	1083.19693	-433.80115	-1118.78133	974.29307	-429.95761	-1161.51687	947.72660	-385.53219	-1225.22355	1078.69565	-389.99734	-1216.17649	962.28025	-383.26510	-1135.66452	1072.93252	-761.40287	-1123.43424	934.13753	-759.38234	-1241.32582	1071.06187	-796.48047	-1230.86265	929.31090	-785.18997	-1103.64270	1234.78479	-468.03494	-1276.07998	1310.35156	-538.83938	-1098.67299	1234.30105	-714.87765	-1276.90165	1311.88447	-656.42873	-1199.57048	1759.16524	-591.34716	-1153.64902	1717.95512	-438.02049	-1146.70560	1725.41122	-747.28029	-1088.63340	1691.88212	-569.33095	-1087.94400	1690.13728	-611.40413	-1147.85318	1591.70422	-368.09954	-1249.25620	1408.74486	-412.53184	-1220.12184	1412.41012	-341.61829	-1187.56943	1288.95300	-323.51711	-1176.90131	1185.61494	-321.56210	-1207.02482	1185.63546	-299.85217	-1140.60349	1574.59966	-812.84522	-1243.30362	1398.71127	-769.60528	-1215.57751	1407.86551	-838.79103	-1182.97036	1315.25008	-863.15073	-1176.02037	1180.86111	-862.05719	-1200.86942	1183.30181	-882.74700	-1205.34775	1181.02099	-496.56717	-1198.10014	1176.70847	-685.75697	-1185.59413	1177.67894	-502.82340	-1186.73264	1179.80295	-665.75507	
40	0.39000000	-1204.70337	782.56240	-421.45585	-1171.42551	668.40305	-437.40928	-1253.03289	397.74186	-450.28075	-1302.41610	358.48556	-498.22138	-1139.53886	348.16742	-419.36216	-1104.43793	367.08205	-463.17432	-1208.56934	781.64203	-751.31521	-1171.85096	679.60451	-709.08456	-1263.61604	396.58602	-727.97740	-1305.35994	366.55654	-691.39817	-1142.77032	346.53099	-742.80132	-1104.01662	367.04468	-690.16735	-1187.08020	558.02573	-446.96695	-1226.09301	670.86264	-384.23451	-1258.36453	566.33939	-403.73513	-1224.98303	703.44256	-776.85889	-1242.82148	582.42684	-784.74331	-1124.07098	1083.51495	-433.44323	-1118.75429	974.38751	-430.14097	-1161.55465	947.72925	-385.60479	-1226.86343	1079.39199	-388.72495	-1216.25481	961.99994	-383.48959	-1136.17067	1073.02576	-761.30482	-1123.54857	934.39949	-759.41803	-1241.36106	1071.92144	-795.38753	-1230.94022	929.24567	-785.12193	-1104.15874	1234.34564	-467.83343	-1276.20138	1310.68752	-538.77001	-1099.29514	1233.76891	-714.58833	-1277.01910	1312.21268	-656.35529	-1196.33964	1758.99994	-591.29193	-1150.59634	1717.67151	-437.97303	-1143.46955	1725.06532	-747.15057	-1085.76102	1690.95898	-569.27293	-1085.05873	1689.26516	-611.42137	-1146.28321	1591.54213	-367.87308	-1250.24886	1409.59027	-412.07059	-1220.80229	1413.14439	-341.28511	-1190.17004	1289.41187	-322.52957	-1181.17063	1185.73772	-320.26789	-1211.36714	1186.56471	-298.37328	-1139.25293	1574.38206	-813.12900	-1244.23199	1399.79074	-769.99792	-1216.60968	1408.72865	-839.06891	-1185.40079	1315.85043	-864.03722	-1179.09610	1181.31239	-864.00798	-1205.18453	1184.20178	-884.13439	-1206.15596	1181.07206	-496.36796	-1198.89661	1176.63478	-685.55453	-1186.39641	1177.61190	-502.59950	-1187.52912	1179.72444	-665.47211	
